<svg xmlns="http://www.w3.org/2000/svg" viewBox="0 0 512 512">
  <defs>
    <linearGradient id="bg" x1="0" y1="0" x2="1" y2="1">
      <stop offset="0%" stop-color="#4d8c45"/>
      <stop offset="100%" stop-color="#17462e"/>
    </linearGradient>
    <linearGradient id="fruit" x1="0" y1="0" x2="1" y2="1">
      <stop offset="0%" stop-color="#e9bf58"/>
      <stop offset="100%" stop-color="#b98725"/>
    </linearGradient>
  </defs>
  <rect width="512" height="512" rx="120" fill="url(#bg)"/>
  <circle cx="256" cy="278" r="132" fill="url(#fruit)"/>
  <path d="M256 108c34 0 68 16 93 44-26-5-52 5-68 24-13-22-41-33-67-28 9-21 24-40 42-40z" fill="#8bd08b"/>
  <path d="M256 152c20 0 37 16 37 36 0 8-2 16-7 22h-60c-5-6-7-14-7-22 0-20 17-36 37-36z" fill="#295d39"/>
  <g stroke="#8e661d" stroke-width="8">
    <path d="M178 216l23 27"/>
    <path d="M232 189l14 37"/>
    <path d="M286 189l-14 37"/>
    <path d="M334 216l-23 27"/>
    <path d="M167 274l36 10"/>
    <path d="M345 274l-36 10"/>
    <path d="M181 334l30-17"/>
    <path d="M331 334l-30-17"/>
    <path d="M232 365l15-34"/>
    <path d="M280 365l-15-34"/>
  </g>
  <path d="M160 344c33 32 67 49 96 49s63-17 96-49c-30 54-63 82-96 82s-66-28-96-82z" fill="#efd18b" opacity=".35"/>
</svg>
